<?xml version="1.0" encoding="utf-8"?><svg viewBox="0 0 61 63" xmlns="http://www.w3.org/2000/svg" xmlns:xlink="http://www.w3.org/1999/xlink"><style>:root>svg{display:none}:root>svg:target{display:block}</style><svg fill="none" viewBox="0 0 16 29" id="arrow" xmlns="http://www.w3.org/2000/svg"><path d="M8 0v28m0 0-7-7.19M8 28l7-7.19" stroke="#6E9C9F"/></svg><svg viewBox="0 0 24 24" id="basket" xmlns="http://www.w3.org/2000/svg"><g clip-path="url(#clip0_24246_437)"><path d="M23.845 8.224a.533.533 0 0 0-.444-.148h-6.367V5.263a5.034 5.034 0 1 0-10.068 0v2.813H.599c-.178 0-.355 0-.444.148a.504.504 0 0 0-.148.445l2.22 12.141a3.613 3.613 0 0 0 3.495 2.961h12.556a3.642 3.642 0 0 0 3.494-2.99l2.221-12.112a.503.503 0 0 0-.148-.445ZM8.15 5.263a3.85 3.85 0 0 1 7.7 0v2.813h-7.7V5.263Zm12.438 15.37a2.37 2.37 0 0 1-2.31 1.954H5.722a2.37 2.37 0 0 1-2.31-1.955L1.31 9.261h21.38l-2.102 11.371Z"/><path d="M16.442 15.035a.592.592 0 0 0 .592-.592v-1.777a.592.592 0 1 0-1.184 0v1.777c0 .327.265.592.592.592ZM7.558 15.035a.592.592 0 0 0 .592-.592v-1.777a.592.592 0 1 0-1.184 0v1.777c0 .327.265.592.592.592Z"/></g></svg><svg fill="none" width="61" height="61" viewBox="0 0 61 61" id="check" xmlns="http://www.w3.org/2000/svg"><g clip-path="url(#ca)" fill="#000"><rect width="61" height="61" fill="white"/><path d="m37.4 24.834-9.166 8.656-4.399-4.525a1.268 1.268 0 0 0-1.818 1.767l5.276 5.416a1.29 1.29 0 0 0 1.793.037l10.08-9.508a1.267 1.267 0 0 0 .051-1.793c-.49-.51-1.3-.532-1.818-.05Z"/><path d="M30.598 11.511c-10.474 0-18.992 8.517-18.992 18.992 0 10.475 8.518 18.993 18.992 18.993 10.476 0 18.993-8.518 18.993-18.993 0-10.475-8.517-18.992-18.993-18.992Zm0 35.442c-9.076 0-16.45-7.386-16.45-16.45s7.374-16.45 16.45-16.45c9.086 0 16.45 7.365 16.45 16.45 0 9.085-7.364 16.45-16.45 16.45Z"/><path d="m56.735 23.511.42-7.538a1.268 1.268 0 0 0-.7-1.208l-6.712-3.394L46.35 4.66a1.29 1.29 0 0 0-1.207-.7l-7.552.408L31.297.21a1.27 1.27 0 0 0-1.398 0l-6.292 4.157-7.538-.42a1.266 1.266 0 0 0-1.208.7l-3.395 6.712-6.711 3.394c-.45.23-.723.702-.7 1.207l.42 7.539-4.157 6.293a1.27 1.27 0 0 0 0 1.398l4.144 6.305-.42 7.538c-.029.506.246.982.7 1.208l6.712 3.394 3.394 6.712c.23.45.703.723 1.208.7l7.538-.42 6.293 4.157c.421.288.976.288 1.398 0l6.293-4.157 7.538.42c.506.029.98-.246 1.208-.7l3.394-6.712 6.712-3.394c.45-.23.723-.703.7-1.208l-.42-7.538 4.157-6.293a1.27 1.27 0 0 0 0-1.398l-4.132-6.293ZM54.37 36.453a1.193 1.193 0 0 0-.203.775l.394 7.131-6.343 3.204a1.254 1.254 0 0 0-.56.56l-3.203 6.343-7.131-.394a1.39 1.39 0 0 0-.776.203l-5.95 3.928-5.949-3.928a1.259 1.259 0 0 0-.699-.216h-.063l-7.132.394-3.204-6.343a1.252 1.252 0 0 0-.56-.56l-6.355-3.19.394-7.132a1.39 1.39 0 0 0-.204-.776l-3.928-5.949 3.928-5.95a1.19 1.19 0 0 0 .204-.774l-.394-7.132 6.343-3.204c.242-.12.438-.317.56-.559l3.203-6.344 7.132.395c.272.01.542-.061.775-.204l5.95-3.928 5.949 3.928c.227.155.501.228.776.204l7.13-.395 3.205 6.344c.12.242.317.438.559.56l6.343 3.203-.394 7.132c-.01.272.061.542.203.775l3.929 5.95-3.929 5.948Z"/></g><defs><clipPath id="ca"><path fill="#fff" d="M0 0h61v61H0z"/></clipPath></defs></svg><svg fill="none" viewBox="0 0 21 21" id="facebook" xmlns="http://www.w3.org/2000/svg"><g clip-path="url(#da)"><path d="M18.54 0H2.46A2.464 2.464 0 0 0 0 2.46v16.08A2.464 2.464 0 0 0 2.46 21h16.08A2.464 2.464 0 0 0 21 18.54V2.46A2.464 2.464 0 0 0 18.54 0Zm.82 18.54c0 .451-.369.82-.82.82H13.7V13.37h2.625l.306-2.543H13.7V8.08c0-.701.53-1.23 1.23-1.23h1.846V4.47c-.485-.068-1.422-.163-1.845-.163-.957 0-1.916.403-2.631 1.107-.737.725-1.143 1.674-1.143 2.673v2.741H8.49v2.543h2.666v5.988H2.461a.821.821 0 0 1-.82-.82V2.461c0-.452.368-.82.82-.82h16.078c.452 0 .82.368.82.82v16.078Z" fill="#000"/></g><defs><clipPath id="da"><path fill="#fff" d="M0 0h21v21H0z"/></clipPath></defs></svg><svg fill="none" viewBox="0 0 61 63" id="gear" xmlns="http://www.w3.org/2000/svg"><path d="m56.661 41.349-5.895-4.192c.99-3.641.984-7.48-.017-11.119l5.915-4.14-4.722-8.17-6.578 3.009a21.073 21.073 0 0 0-9.64-5.545L35.098 4h-9.444l-.627 7.192a21.07 21.07 0 0 0-9.637 5.548l-6.58-3.01-4.72 8.171 5.915 4.14a21.07 21.07 0 0 0-.02 11.116L4.09 41.349l4.72 8.132 6.58-3.013a21.07 21.07 0 0 0 9.637 5.544l.627 7.193h9.444l.628-7.193a21.073 21.073 0 0 0 9.636-5.544l6.581 3.012 4.722-8.128-.003-.003ZM36.891.701a1.625 1.625 0 0 1 1.625 1.55l.579 6.614a24.213 24.213 0 0 1 6.64 3.829l6.012-2.805a1.625 1.625 0 0 1 2.152.634L60.415 21.8a1.625 1.625 0 0 1-.527 2.181l-5.44 3.809c.416 2.594.403 5.177.003 7.667l5.437 3.802a1.625 1.625 0 0 1 .527 2.184L53.899 52.68a1.625 1.625 0 0 1-2.152.633l-6.012-2.804a24.207 24.207 0 0 1-6.64 3.831l-.579 6.614a1.625 1.625 0 0 1-1.625 1.547H23.86a1.625 1.625 0 0 1-1.625-1.547l-.579-6.614a24.222 24.222 0 0 1-6.64-3.831l-6.012 2.804a1.625 1.625 0 0 1-2.155-.63L.335 41.44a1.625 1.625 0 0 1 .527-2.18l5.437-3.806a24.212 24.212 0 0 1 0-7.667L.865 23.98a1.625 1.625 0 0 1-.526-2.178l6.506-11.28A1.625 1.625 0 0 1 9 9.889l6.012 2.805a24.213 24.213 0 0 1 6.64-3.829l.579-6.613a1.625 1.625 0 0 1 1.625-1.55H36.89ZM30.375 20.25a11.375 11.375 0 1 1 0 22.75 11.375 11.375 0 0 1 0-22.75Zm0 3.25a8.125 8.125 0 1 0 0 16.25 8.125 8.125 0 0 0 0-16.25Z" fill="#000"/></svg><svg fill="none" viewBox="0 0 57 57" id="hand" xmlns="http://www.w3.org/2000/svg"><path d="M20.777 40.79c-.336 0-.672-.128-.929-.383L2.216 22.772a5.257 5.257 0 0 1 0-7.426 5.258 5.258 0 0 1 7.423 0l15.78 15.779a1.313 1.313 0 0 1-1.856 1.856L7.783 17.202a2.634 2.634 0 0 0-3.711 0 2.618 2.618 0 0 0-.77 1.856c0 .703.274 1.362.77 1.858l17.635 17.632a1.313 1.313 0 0 1-.93 2.242Z" fill="#000"/><path d="M30.06 27.797c-.337 0-.673-.13-.93-.384L11.498 9.778a2.625 2.625 0 1 0-3.714 3.712l1.856 1.856a1.313 1.313 0 0 1-1.856 1.856l-1.856-1.856a5.214 5.214 0 0 1-1.538-3.712c0-1.401.546-2.72 1.538-3.711 1.982-1.982 5.439-1.988 7.426 0l17.632 17.634a1.313 1.313 0 0 1-.927 2.24Z" fill="#000"/><path d="M35.63 22.229c-.336 0-.672-.129-.93-.383L20.777 7.923a2.622 2.622 0 0 0-3.711 0 2.627 2.627 0 0 0 0 3.711 1.313 1.313 0 0 1-1.856 1.856 5.258 5.258 0 0 1 0-7.423 5.258 5.258 0 0 1 7.423 0L36.556 19.99a1.313 1.313 0 0 1-.926 2.239Z" fill="#000"/><path d="M34.196 56.467c-.884 0-1.78-.1-2.667-.302L9.427 51.099a5.123 5.123 0 0 1-2.57-1.413 5.221 5.221 0 0 1-1.54-3.711c0-1.402.548-2.72 1.54-3.712a5.12 5.12 0 0 1 2.407-1.37c.026-.01.053-.016.079-.024l11.13-2.67a1.308 1.308 0 0 1 1.583.972 1.316 1.316 0 0 1-.972 1.582l-11.053 2.652-.105.029a2.489 2.489 0 0 0-1.213.687 2.61 2.61 0 0 0-.772 1.856c0 .701.273 1.36.772 1.856a2.547 2.547 0 0 0 1.268.704l22.136 5.074a9.13 9.13 0 0 0 8.55-2.46l10.741-10.744A9.128 9.128 0 0 0 54.1 33.91c0-2.454-.955-4.759-2.69-6.497L28.205 4.211a2.622 2.622 0 0 0-3.712 0 2.627 2.627 0 0 0 0 3.712 1.314 1.314 0 0 1-1.855 1.855 5.258 5.258 0 0 1 0-7.423 5.258 5.258 0 0 1 7.423 0l23.202 23.202a11.72 11.72 0 0 1 3.46 8.353 11.73 11.73 0 0 1-3.46 8.353L42.523 53.007a11.765 11.765 0 0 1-8.327 3.46Z" fill="#000"/></svg><svg fill="none" viewBox="0 0 22 23" id="instagram" xmlns="http://www.w3.org/2000/svg"><g clip-path="url(#ga)" fill="#000"><path d="M15.61.5H6.39A6.398 6.398 0 0 0 0 6.89v9.22a6.398 6.398 0 0 0 6.39 6.39h9.22A6.398 6.398 0 0 0 22 16.11V6.89A6.398 6.398 0 0 0 15.61.5Zm4.671 15.61a4.677 4.677 0 0 1-4.672 4.671H6.391a4.677 4.677 0 0 1-4.672-4.672V6.891A4.677 4.677 0 0 1 6.39 2.219h9.218a4.677 4.677 0 0 1 4.672 4.672v9.218Z"/><path d="M11 5.57c-3.27 0-5.93 2.66-5.93 5.93 0 3.27 2.66 5.93 5.93 5.93 3.27 0 5.93-2.66 5.93-5.93 0-3.27-2.66-5.93-5.93-5.93Zm0 10.14a4.216 4.216 0 0 1-4.21-4.21A4.216 4.216 0 0 1 11 7.29a4.216 4.216 0 0 1 4.21 4.21A4.216 4.216 0 0 1 11 15.71ZM17.016 6.344a.86.86 0 1 0 0-1.72.86.86 0 0 0 0 1.72Z"/></g><defs><clipPath id="ga"><path fill="#fff" transform="translate(0 .5)" d="M0 0h22v22H0z"/></clipPath></defs></svg><svg fill="none" viewBox="0 0 19 25" id="logo" xmlns="http://www.w3.org/2000/svg"><path d="m18.517 22.65-.358-1.672a28.298 28.298 0 0 0-4.02-9.625V8.64a3.659 3.659 0 0 0 1.465-2.928V4.248a.732.732 0 0 0-.733-.732h-.732V.732a.733.733 0 0 0-1.465 0v2.791A4.15 4.15 0 0 0 9.5 5.315a4.15 4.15 0 0 0-3.174-1.792V.733a.732.732 0 0 0-1.465 0v2.783H4.13a.732.732 0 0 0-.733.732v1.465c0 1.195.576 2.259 1.465 2.928v2.712a28.3 28.3 0 0 0-4.02 9.625l-.358 1.671a.732.732 0 0 0 .466.842A24.909 24.909 0 0 0 9.5 25a24.91 24.91 0 0 0 8.552-1.51.732.732 0 0 0 .465-.84ZM12.918 4.98h1.22v.733a2.2 2.2 0 0 1-2.197 2.197h-1.709v-.244a2.689 2.689 0 0 1 2.686-2.686Zm-8.057 0h1.221a2.689 2.689 0 0 1 2.686 2.686v.244h-1.71a2.2 2.2 0 0 1-2.197-2.197V4.98ZM7.06 9.375h4.882c.251 0 .496-.025.733-.074v1.539H6.326V9.3c.237.049.482.074.733.074ZM9.5 23.535c-2.542 0-5.044-.407-7.45-1.21l.224-1.04a26.84 26.84 0 0 1 3.715-8.98h7.022a26.84 26.84 0 0 1 3.715 8.98l.223 1.04a23.444 23.444 0 0 1-7.449 1.21Z" fill="#000"/></svg><svg fill="none" viewBox="0 0 15 15" id="phone" xmlns="http://www.w3.org/2000/svg"><path d="M13.748 2.435 11.855.548 7.923 4.474l1.525 1.574c-.256.453-.81 1.322-1.755 2.266a10.919 10.919 0 0 1-2.277 1.765L3.873 8.556l-3.87 3.847 1.882 1.895c.72.72 1.815.907 2.725.464 1.39-.674 3.485-1.919 5.584-4.018 2.1-2.098 3.344-4.195 4.018-5.584.16-.329.238-.682.238-1.033 0-.62-.242-1.232-.702-1.692Zm-.55 2.232c-.637 1.311-1.814 3.292-3.801 5.28-1.988 1.988-3.969 3.164-5.28 3.8a1.255 1.255 0 0 1-1.433-.245l-1.087-1.094 2.278-2.264L5.19 11.44l.352-.156c.057-.026 1.417-.641 2.95-2.173 1.532-1.533 2.135-2.881 2.16-2.938l.152-.347-1.297-1.34 2.349-2.345 1.095 1.091c.38.38.479.957.247 1.434Z" fill="#6E9C9F"/></svg><svg fill="none" viewBox="0 0 23 23" id="twitter" xmlns="http://www.w3.org/2000/svg"><path d="m20.271 5.165-.011-.044a4.867 4.867 0 0 0 2.111-2.65 9.815 9.815 0 0 1-3.055 1.168c-.86-.918-2.01-1.483-3.369-1.483-2.604 0-4.761 2.109-4.761 4.717 0 .371.052.735.134 1.078v.045C7.44 7.774 3.924 5.8 1.617 2.965c-.405.697-.629 1.694-.629 2.56 0 1.348.8 3.153 2.067 3.998v.09c-.756-.03-1.53-.551-2.157-.898 0 .02.028.045.028.066 0 2.289 1.677 4.263 3.836 4.696-.376.1-.906.18-1.303.18-.305 0-.61-.08-.898-.136.6 1.877 2.335 3.1 4.402 3.1v.045c-1.609 1.247-3.647 2.111-5.84 2.111-.38 0-.853-.045-1.123-.09 2.086 1.34 4.566 2.157 7.232 2.157 8.678 0 13.432-7.143 13.432-13.387v-.629c.923-.667 1.705-1.567 2.336-2.516 0 0-1.656.785-2.729.853Zm-1.404 2.292c0 1.348-.264 2.764-.764 4.094a11.977 11.977 0 0 1-2.246 3.75c-1.514 1.709-4.239 3.746-8.625 3.746-.128 0-.257-.002-.386-.007.424-.245.83-.519 1.218-.82l.696-.539v-2.857l-.74-.008a1.477 1.477 0 0 1-1.461-1.477v-1.47l-.972-.219a.943.943 0 0 1-.735-.92V9.48l-.023-.916-.799-.534a3.666 3.666 0 0 1-.88-1.154c2.357 1.72 5.158 2.749 8.068 2.915l1.9.109v-2.16l-.05-.207a2.857 2.857 0 0 1-.086-.659c0-.774.31-1.504.87-2.057a2.968 2.968 0 0 1 2.095-.863c.796 0 1.49.308 2.06.915l.458.489.055.214.012.044.335 1.298v.544Z" fill="#000"/></svg></svg>